<mxfile host="app.diagrams.net" agent="Mozilla/5.0 (Macintosh; Intel Mac OS X 10_15_7) AppleWebKit/537.36 (KHTML, like Gecko) Chrome/139.0.0.0 Safari/537.36" version="28.2.3">
  <diagram name="Page-1" id="iN2BTS22TFUohsDnAOiF">
    <mxGraphModel dx="1099" dy="728" grid="1" gridSize="10" guides="1" tooltips="1" connect="1" arrows="1" fold="1" page="1" pageScale="1" pageWidth="827" pageHeight="1169" math="0" shadow="0">
      <root>
        <mxCell id="0" />
        <mxCell id="1" parent="0" />
        <mxCell id="Jss8i7R6KJV81i7rAHHr-8" value="" style="whiteSpace=wrap;html=1;aspect=fixed;rotation=0;movable=1;resizable=1;rotatable=1;deletable=1;editable=1;locked=0;connectable=1;" vertex="1" parent="1">
          <mxGeometry x="40" y="160" width="201.43" height="470" as="geometry" />
        </mxCell>
        <mxCell id="Jss8i7R6KJV81i7rAHHr-1" value="git push" style="rounded=1;whiteSpace=wrap;html=1;" vertex="1" parent="1">
          <mxGeometry x="80.71000000000001" y="30" width="120" height="60" as="geometry" />
        </mxCell>
        <mxCell id="Jss8i7R6KJV81i7rAHHr-3" value="workflow triggered" style="rounded=1;whiteSpace=wrap;html=1;" vertex="1" parent="1">
          <mxGeometry x="80.71000000000001" y="240" width="120" height="60" as="geometry" />
        </mxCell>
        <mxCell id="Jss8i7R6KJV81i7rAHHr-4" value="docker build" style="rounded=1;whiteSpace=wrap;html=1;" vertex="1" parent="1">
          <mxGeometry x="80.71000000000001" y="340" width="120" height="60" as="geometry" />
        </mxCell>
        <mxCell id="Jss8i7R6KJV81i7rAHHr-5" value="docker image push to&amp;nbsp;&lt;div&gt;ghcr.io repository&lt;/div&gt;" style="rounded=1;whiteSpace=wrap;html=1;" vertex="1" parent="1">
          <mxGeometry x="80.71000000000001" y="550" width="120" height="60" as="geometry" />
        </mxCell>
        <mxCell id="Jss8i7R6KJV81i7rAHHr-6" value="docker tag" style="rounded=1;whiteSpace=wrap;html=1;" vertex="1" parent="1">
          <mxGeometry x="80.00000000000001" y="440" width="120" height="60" as="geometry" />
        </mxCell>
        <mxCell id="Jss8i7R6KJV81i7rAHHr-10" value="Github" style="text;html=1;align=center;verticalAlign=middle;whiteSpace=wrap;rounded=0;" vertex="1" parent="1">
          <mxGeometry x="110.71" y="180" width="60" height="30" as="geometry" />
        </mxCell>
        <mxCell id="Jss8i7R6KJV81i7rAHHr-12" value="" style="endArrow=classic;html=1;rounded=0;exitX=0.5;exitY=1;exitDx=0;exitDy=0;entryX=0.5;entryY=0;entryDx=0;entryDy=0;" edge="1" parent="1" source="Jss8i7R6KJV81i7rAHHr-1" target="Jss8i7R6KJV81i7rAHHr-8">
          <mxGeometry width="50" height="50" relative="1" as="geometry">
            <mxPoint x="300" y="390" as="sourcePoint" />
            <mxPoint x="350" y="340" as="targetPoint" />
          </mxGeometry>
        </mxCell>
        <mxCell id="Jss8i7R6KJV81i7rAHHr-13" value="" style="endArrow=classic;html=1;rounded=0;" edge="1" parent="1">
          <mxGeometry width="50" height="50" relative="1" as="geometry">
            <mxPoint x="139.5" y="300" as="sourcePoint" />
            <mxPoint x="139.5" y="340" as="targetPoint" />
          </mxGeometry>
        </mxCell>
        <mxCell id="Jss8i7R6KJV81i7rAHHr-18" value="" style="endArrow=classic;html=1;rounded=0;exitX=0.5;exitY=1;exitDx=0;exitDy=0;" edge="1" parent="1" source="Jss8i7R6KJV81i7rAHHr-6">
          <mxGeometry width="50" height="50" relative="1" as="geometry">
            <mxPoint x="140" y="510" as="sourcePoint" />
            <mxPoint x="139.5" y="550" as="targetPoint" />
            <Array as="points">
              <mxPoint x="140" y="520" />
            </Array>
          </mxGeometry>
        </mxCell>
        <mxCell id="Jss8i7R6KJV81i7rAHHr-20" value="" style="endArrow=classic;html=1;rounded=0;" edge="1" parent="1">
          <mxGeometry width="50" height="50" relative="1" as="geometry">
            <mxPoint x="139.5" y="400" as="sourcePoint" />
            <mxPoint x="139.5" y="440" as="targetPoint" />
          </mxGeometry>
        </mxCell>
        <mxCell id="Jss8i7R6KJV81i7rAHHr-21" value="&lt;h1 style=&quot;margin-top: 0px;&quot;&gt;Pipeline&lt;/h1&gt;&lt;div&gt;&lt;b&gt;main&lt;/b&gt; branch: build image and tag &lt;b&gt;latest&lt;/b&gt; + commit hash&lt;/div&gt;&lt;div&gt;&lt;b&gt;dev&lt;/b&gt; branch: build image and tag &lt;b&gt;development&lt;/b&gt; + commit hash&lt;/div&gt;&lt;div&gt;&lt;b&gt;other&lt;/b&gt; branches: build image and tag &lt;b&gt;alpha&lt;/b&gt; + commit hash&lt;/div&gt;&lt;h1 style=&quot;margin-top: 0px;&quot;&gt;&lt;br&gt;&lt;/h1&gt;" style="text;html=1;whiteSpace=wrap;overflow=hidden;rounded=0;" vertex="1" parent="1">
          <mxGeometry x="300" y="160" width="360" height="120" as="geometry" />
        </mxCell>
      </root>
    </mxGraphModel>
  </diagram>
</mxfile>
